<?xml version="1.0" encoding="UTF-8"?>
<svg xmlns="http://www.w3.org/2000/svg" xmlns:xlink="http://www.w3.org/1999/xlink" width="102px" height="32px" viewBox="0 0 102 32" version="1.1">
<g id="surface1">
<path style=" stroke:none;fill-rule:nonzero;fill:rgb(98.039216%,87.843137%,33.72549%);fill-opacity:0.4;" d="M 2.996094 23.648438 L 2.996094 29.882812 L 29.21875 29.882812 L 29.21875 13.550781 L 9.179688 13.550781 L 9.179688 9.683594 L 29.21875 9.683594 L 29.21875 3.449219 L 2.996094 3.449219 L 2.996094 19.785156 L 23.035156 19.785156 L 23.035156 23.648438 Z M 2.996094 23.648438 "/>
<path style=" stroke:none;fill-rule:nonzero;fill:rgb(98.039216%,87.843137%,33.72549%);fill-opacity:0.4;" d="M 59.359375 3.449219 L 33.132812 3.449219 L 33.132812 29.882812 L 39.316406 29.882812 L 39.316406 24.835938 L 53.175781 24.835938 L 53.175781 29.882812 L 59.359375 29.882812 Z M 39.316406 18.601562 L 39.316406 9.683594 L 53.175781 9.683594 L 53.175781 18.601562 Z M 39.316406 18.601562 "/>
<path style=" stroke:none;fill-rule:nonzero;fill:rgb(98.039216%,87.843137%,33.72549%);fill-opacity:0.4;" d="M 63.273438 3.449219 L 63.273438 9.683594 L 73.292969 9.683594 L 73.292969 29.882812 L 79.480469 29.882812 L 79.480469 9.683594 L 89.5 9.683594 L 89.5 3.449219 Z M 63.273438 3.449219 "/>
<path style=" stroke:none;fill-rule:nonzero;fill:rgb(98.039216%,87.843137%,33.72549%);fill-opacity:0.4;" d="M 99.597656 3.449219 L 93.414062 3.449219 L 93.414062 29.882812 L 99.597656 29.882812 Z M 99.597656 3.449219 "/>
<path style=" stroke:none;fill-rule:nonzero;fill:rgb(98.039216%,87.843137%,33.72549%);fill-opacity:1;" d="M 1.222656 21.867188 L 1.222656 28.101562 L 27.449219 28.101562 L 27.449219 11.765625 L 7.410156 11.765625 L 7.410156 7.898438 L 27.449219 7.898438 L 27.449219 1.664062 L 1.222656 1.664062 L 1.222656 17.996094 L 21.261719 17.996094 L 21.261719 21.867188 Z M 1.222656 21.867188 "/>
<path style=" stroke:none;fill-rule:nonzero;fill:rgb(98.039216%,87.843137%,33.72549%);fill-opacity:1;" d="M 57.585938 1.664062 L 31.363281 1.664062 L 31.363281 28.101562 L 37.546875 28.101562 L 37.546875 23.050781 L 51.402344 23.050781 L 51.402344 28.101562 L 57.585938 28.101562 Z M 37.546875 16.816406 L 37.546875 7.898438 L 51.402344 7.898438 L 51.402344 16.816406 Z M 37.546875 16.816406 "/>
<path style=" stroke:none;fill-rule:nonzero;fill:rgb(98.039216%,87.843137%,33.72549%);fill-opacity:1;" d="M 61.5 1.664062 L 61.5 7.898438 L 71.519531 7.898438 L 71.519531 28.101562 L 77.707031 28.101562 L 77.707031 7.898438 L 87.726562 7.898438 L 87.726562 1.664062 Z M 61.5 1.664062 "/>
<path style=" stroke:none;fill-rule:nonzero;fill:rgb(98.039216%,87.843137%,33.72549%);fill-opacity:1;" d="M 97.824219 1.664062 L 91.640625 1.664062 L 91.640625 28.101562 L 97.824219 28.101562 Z M 97.824219 1.664062 "/>
</g>
</svg>
